# xmcd
#
# Track frame offsets:
# 150
# 19052
# 33567
# 48157
# 61884
# 71036
# 92676
# 107641
# 125756
# 143721
# 151973
# 159475
# 169204
# 187439
# 194791
# 208907
# 224284
#
# Disc length: 3277 seconds
#
# Revision: 0
# Processed by: cddbd v1.5.2PL0 Copyright (c) Steve Scherf et al.
# Submitted via: Audion 3.0.2 (http://www.panic.com/audion/)
#
DISCID=060ccb11
DTITLE=Rick Garland and Bill Vitelli - O'Be Joyful
DYEAR=1900
DGENRE=
TTITLE0=Johnny Has Gone For a Solider - The Battle Cry of Freedom - Insturmental Prelude
TTITLE1=The Battle Cry of Freedom
TTITLE2=Listen to the Mockingbird
TTITLE3=Johnny I Hardly Knew Ye - When Johnny Comes Marching Home
TTITLE4=O Susanna
TTITLE5=Maryland, My Maryland
TTITLE6=Faded Coat of Blue
TTITLE7=Bonnie Blue Flag
TTITLE8=Aura Lea
TTITLE9=Garryowen-Instrumental
TTITLE10=The MInstrel Boy
TTITLE11=The Army of the Free
TTITLE12=A Lonely Night's Grace
TTITLE13=Drink It Down
TTITLE14=Whiskey in the Jar
TTITLE15=Cathleen Mavourneen
TTITLE16=Dixie
EXTD=
EXTT0=
EXTT1=
EXTT2=
EXTT3=
EXTT4=
EXTT5=
EXTT6=
EXTT7=
EXTT8=
EXTT9=
EXTT10=
EXTT11=
EXTT12=
EXTT13=
EXTT14=
EXTT15=
EXTT16=
PLAYORDER=
